<mxfile host="app.diagrams.net" modified="2024-01-07T15:58:56.267Z" agent="Mozilla/5.0 (Windows NT 10.0; Win64; x64) AppleWebKit/537.36 (KHTML, like Gecko) Chrome/120.0.0.0 Safari/537.36" etag="PUfTKIoubOL3Z3BGq1oO" version="22.1.17" type="device">
  <diagram name="Страница — 1" id="1M-AxSxq9gt9Cmjxak0c">
    <mxGraphModel dx="1434" dy="772" grid="1" gridSize="10" guides="1" tooltips="1" connect="1" arrows="1" fold="1" page="1" pageScale="1" pageWidth="827" pageHeight="1169" math="0" shadow="0">
      <root>
        <mxCell id="0" />
        <mxCell id="1" parent="0" />
        <mxCell id="QVS38LhnqsuLPrGe4ZjG-1" value="Bot" style="swimlane;fontStyle=0;childLayout=stackLayout;horizontal=1;startSize=26;fillColor=none;horizontalStack=0;resizeParent=1;resizeParentMax=0;resizeLast=0;collapsible=1;marginBottom=0;whiteSpace=wrap;html=1;" vertex="1" parent="1">
          <mxGeometry x="40" y="40" width="140" height="52" as="geometry" />
        </mxCell>
        <mxCell id="QVS38LhnqsuLPrGe4ZjG-2" value="+ handle()" style="text;strokeColor=none;fillColor=none;align=left;verticalAlign=top;spacingLeft=4;spacingRight=4;overflow=hidden;rotatable=0;points=[[0,0.5],[1,0.5]];portConstraint=eastwest;whiteSpace=wrap;html=1;" vertex="1" parent="QVS38LhnqsuLPrGe4ZjG-1">
          <mxGeometry y="26" width="140" height="26" as="geometry" />
        </mxCell>
        <mxCell id="QVS38LhnqsuLPrGe4ZjG-5" value="AddressBook" style="swimlane;fontStyle=1;align=center;verticalAlign=top;childLayout=stackLayout;horizontal=1;startSize=26;horizontalStack=0;resizeParent=1;resizeParentMax=0;resizeLast=0;collapsible=1;marginBottom=0;whiteSpace=wrap;html=1;" vertex="1" parent="1">
          <mxGeometry x="254" y="40" width="160" height="270" as="geometry" />
        </mxCell>
        <mxCell id="QVS38LhnqsuLPrGe4ZjG-6" value="- data: list&lt;br&gt;- counter: int" style="text;strokeColor=none;fillColor=none;align=left;verticalAlign=top;spacingLeft=4;spacingRight=4;overflow=hidden;rotatable=0;points=[[0,0.5],[1,0.5]];portConstraint=eastwest;whiteSpace=wrap;html=1;" vertex="1" parent="QVS38LhnqsuLPrGe4ZjG-5">
          <mxGeometry y="26" width="160" height="34" as="geometry" />
        </mxCell>
        <mxCell id="QVS38LhnqsuLPrGe4ZjG-7" value="" style="line;strokeWidth=1;fillColor=none;align=left;verticalAlign=middle;spacingTop=-1;spacingLeft=3;spacingRight=3;rotatable=0;labelPosition=right;points=[];portConstraint=eastwest;strokeColor=inherit;" vertex="1" parent="QVS38LhnqsuLPrGe4ZjG-5">
          <mxGeometry y="60" width="160" height="8" as="geometry" />
        </mxCell>
        <mxCell id="QVS38LhnqsuLPrGe4ZjG-8" value="+ __str__()&lt;br&gt;+ __next__()&lt;br&gt;+ __iter__()&lt;br&gt;+ __setitem__()&lt;br&gt;+ __getitem__()&lt;br&gt;+ log()&lt;br&gt;+ add()&lt;br&gt;+ save()&lt;br&gt;+ load()&lt;br&gt;+ search()&lt;br&gt;+ edit()&lt;br&gt;+ remove()&lt;br&gt;+ congratulate()" style="text;strokeColor=none;fillColor=none;align=left;verticalAlign=top;spacingLeft=4;spacingRight=4;overflow=hidden;rotatable=0;points=[[0,0.5],[1,0.5]];portConstraint=eastwest;whiteSpace=wrap;html=1;" vertex="1" parent="QVS38LhnqsuLPrGe4ZjG-5">
          <mxGeometry y="68" width="160" height="202" as="geometry" />
        </mxCell>
        <mxCell id="QVS38LhnqsuLPrGe4ZjG-48" style="edgeStyle=orthogonalEdgeStyle;rounded=0;orthogonalLoop=1;jettySize=auto;html=1;" edge="1" parent="1" source="QVS38LhnqsuLPrGe4ZjG-20">
          <mxGeometry relative="1" as="geometry">
            <mxPoint x="530" y="260" as="targetPoint" />
          </mxGeometry>
        </mxCell>
        <mxCell id="QVS38LhnqsuLPrGe4ZjG-20" value="Record" style="swimlane;fontStyle=0;childLayout=stackLayout;horizontal=1;startSize=26;fillColor=none;horizontalStack=0;resizeParent=1;resizeParentMax=0;resizeLast=0;collapsible=1;marginBottom=0;whiteSpace=wrap;html=1;" vertex="1" parent="1">
          <mxGeometry x="460" y="40" width="140" height="154" as="geometry" />
        </mxCell>
        <mxCell id="QVS38LhnqsuLPrGe4ZjG-23" value="- name: Name&lt;br&gt;- phones: Phone&lt;br&gt;- birthday: Birthday&lt;br&gt;- email: Email&lt;br&gt;- status: Status&lt;br&gt;- note: Note" style="text;strokeColor=none;fillColor=none;align=left;verticalAlign=top;spacingLeft=4;spacingRight=4;overflow=hidden;rotatable=0;points=[[0,0.5],[1,0.5]];portConstraint=eastwest;whiteSpace=wrap;html=1;" vertex="1" parent="QVS38LhnqsuLPrGe4ZjG-20">
          <mxGeometry y="26" width="140" height="94" as="geometry" />
        </mxCell>
        <mxCell id="QVS38LhnqsuLPrGe4ZjG-41" value="" style="line;strokeWidth=1;fillColor=none;align=left;verticalAlign=middle;spacingTop=-1;spacingLeft=3;spacingRight=3;rotatable=0;labelPosition=right;points=[];portConstraint=eastwest;strokeColor=inherit;" vertex="1" parent="QVS38LhnqsuLPrGe4ZjG-20">
          <mxGeometry y="120" width="140" height="8" as="geometry" />
        </mxCell>
        <mxCell id="QVS38LhnqsuLPrGe4ZjG-43" value="+ days_to_birthday()" style="text;strokeColor=none;fillColor=none;align=left;verticalAlign=top;spacingLeft=4;spacingRight=4;overflow=hidden;rotatable=0;points=[[0,0.5],[1,0.5]];portConstraint=eastwest;whiteSpace=wrap;html=1;" vertex="1" parent="QVS38LhnqsuLPrGe4ZjG-20">
          <mxGeometry y="128" width="140" height="26" as="geometry" />
        </mxCell>
        <mxCell id="QVS38LhnqsuLPrGe4ZjG-24" value="Field" style="swimlane;fontStyle=0;childLayout=stackLayout;horizontal=1;startSize=26;fillColor=none;horizontalStack=0;resizeParent=1;resizeParentMax=0;resizeLast=0;collapsible=1;marginBottom=0;whiteSpace=wrap;html=1;" vertex="1" parent="1">
          <mxGeometry x="460" y="258" width="140" height="52" as="geometry" />
        </mxCell>
        <mxCell id="QVS38LhnqsuLPrGe4ZjG-25" value="- value: str" style="text;strokeColor=none;fillColor=none;align=left;verticalAlign=top;spacingLeft=4;spacingRight=4;overflow=hidden;rotatable=0;points=[[0,0.5],[1,0.5]];portConstraint=eastwest;whiteSpace=wrap;html=1;" vertex="1" parent="QVS38LhnqsuLPrGe4ZjG-24">
          <mxGeometry y="26" width="140" height="26" as="geometry" />
        </mxCell>
        <mxCell id="QVS38LhnqsuLPrGe4ZjG-56" style="edgeStyle=orthogonalEdgeStyle;rounded=0;orthogonalLoop=1;jettySize=auto;html=1;" edge="1" parent="1" source="QVS38LhnqsuLPrGe4ZjG-28">
          <mxGeometry relative="1" as="geometry">
            <mxPoint x="350" y="350" as="targetPoint" />
          </mxGeometry>
        </mxCell>
        <mxCell id="QVS38LhnqsuLPrGe4ZjG-28" value="Name" style="swimlane;fontStyle=0;childLayout=stackLayout;horizontal=1;startSize=26;fillColor=none;horizontalStack=0;resizeParent=1;resizeParentMax=0;resizeLast=0;collapsible=1;marginBottom=0;whiteSpace=wrap;html=1;" vertex="1" parent="1">
          <mxGeometry x="280" y="370" width="140" height="52" as="geometry" />
        </mxCell>
        <mxCell id="QVS38LhnqsuLPrGe4ZjG-54" style="edgeStyle=orthogonalEdgeStyle;rounded=0;orthogonalLoop=1;jettySize=auto;html=1;" edge="1" parent="1" source="QVS38LhnqsuLPrGe4ZjG-32">
          <mxGeometry relative="1" as="geometry">
            <mxPoint x="660" y="350" as="targetPoint" />
          </mxGeometry>
        </mxCell>
        <mxCell id="QVS38LhnqsuLPrGe4ZjG-32" value="Email" style="swimlane;fontStyle=0;childLayout=stackLayout;horizontal=1;startSize=26;fillColor=none;horizontalStack=0;resizeParent=1;resizeParentMax=0;resizeLast=0;collapsible=1;marginBottom=0;whiteSpace=wrap;html=1;" vertex="1" parent="1">
          <mxGeometry x="590" y="440" width="140" height="52" as="geometry" />
        </mxCell>
        <mxCell id="QVS38LhnqsuLPrGe4ZjG-52" style="edgeStyle=orthogonalEdgeStyle;rounded=0;orthogonalLoop=1;jettySize=auto;html=1;" edge="1" parent="1" source="QVS38LhnqsuLPrGe4ZjG-33">
          <mxGeometry relative="1" as="geometry">
            <mxPoint x="350" y="350" as="targetPoint" />
            <Array as="points">
              <mxPoint x="240" y="350" />
            </Array>
          </mxGeometry>
        </mxCell>
        <mxCell id="QVS38LhnqsuLPrGe4ZjG-33" value="Phone" style="swimlane;fontStyle=0;childLayout=stackLayout;horizontal=1;startSize=26;fillColor=none;horizontalStack=0;resizeParent=1;resizeParentMax=0;resizeLast=0;collapsible=1;marginBottom=0;whiteSpace=wrap;html=1;" vertex="1" parent="1">
          <mxGeometry x="170" y="440" width="140" height="52" as="geometry" />
        </mxCell>
        <mxCell id="QVS38LhnqsuLPrGe4ZjG-53" style="edgeStyle=orthogonalEdgeStyle;rounded=0;orthogonalLoop=1;jettySize=auto;html=1;" edge="1" parent="1" source="QVS38LhnqsuLPrGe4ZjG-34">
          <mxGeometry relative="1" as="geometry">
            <mxPoint x="450" y="350" as="targetPoint" />
          </mxGeometry>
        </mxCell>
        <mxCell id="QVS38LhnqsuLPrGe4ZjG-34" value="Birthday" style="swimlane;fontStyle=0;childLayout=stackLayout;horizontal=1;startSize=26;fillColor=none;horizontalStack=0;resizeParent=1;resizeParentMax=0;resizeLast=0;collapsible=1;marginBottom=0;whiteSpace=wrap;html=1;" vertex="1" parent="1">
          <mxGeometry x="380" y="440" width="140" height="52" as="geometry" />
        </mxCell>
        <mxCell id="QVS38LhnqsuLPrGe4ZjG-55" style="edgeStyle=orthogonalEdgeStyle;rounded=0;orthogonalLoop=1;jettySize=auto;html=1;" edge="1" parent="1" source="QVS38LhnqsuLPrGe4ZjG-35">
          <mxGeometry relative="1" as="geometry">
            <mxPoint x="757" y="350" as="targetPoint" />
          </mxGeometry>
        </mxCell>
        <mxCell id="QVS38LhnqsuLPrGe4ZjG-35" value="Note" style="swimlane;fontStyle=0;childLayout=stackLayout;horizontal=1;startSize=26;fillColor=none;horizontalStack=0;resizeParent=1;resizeParentMax=0;resizeLast=0;collapsible=1;marginBottom=0;whiteSpace=wrap;html=1;" vertex="1" parent="1">
          <mxGeometry x="687" y="370" width="140" height="52" as="geometry" />
        </mxCell>
        <mxCell id="QVS38LhnqsuLPrGe4ZjG-57" style="edgeStyle=orthogonalEdgeStyle;rounded=0;orthogonalLoop=1;jettySize=auto;html=1;" edge="1" parent="1" source="QVS38LhnqsuLPrGe4ZjG-36">
          <mxGeometry relative="1" as="geometry">
            <mxPoint x="550" y="350" as="targetPoint" />
          </mxGeometry>
        </mxCell>
        <mxCell id="QVS38LhnqsuLPrGe4ZjG-36" value="Status" style="swimlane;fontStyle=0;childLayout=stackLayout;horizontal=1;startSize=26;fillColor=none;horizontalStack=0;resizeParent=1;resizeParentMax=0;resizeLast=0;collapsible=1;marginBottom=0;whiteSpace=wrap;html=1;" vertex="1" parent="1">
          <mxGeometry x="480" y="370" width="140" height="52" as="geometry" />
        </mxCell>
        <mxCell id="QVS38LhnqsuLPrGe4ZjG-38" value="" style="edgeStyle=orthogonalEdgeStyle;rounded=0;orthogonalLoop=1;jettySize=auto;html=1;" edge="1" parent="1" source="QVS38LhnqsuLPrGe4ZjG-2" target="QVS38LhnqsuLPrGe4ZjG-8">
          <mxGeometry relative="1" as="geometry" />
        </mxCell>
        <mxCell id="QVS38LhnqsuLPrGe4ZjG-39" value="" style="edgeStyle=orthogonalEdgeStyle;rounded=0;orthogonalLoop=1;jettySize=auto;html=1;" edge="1" parent="1" source="QVS38LhnqsuLPrGe4ZjG-8" target="QVS38LhnqsuLPrGe4ZjG-23">
          <mxGeometry relative="1" as="geometry" />
        </mxCell>
        <mxCell id="QVS38LhnqsuLPrGe4ZjG-50" value="" style="endArrow=none;html=1;rounded=0;" edge="1" parent="1">
          <mxGeometry width="50" height="50" relative="1" as="geometry">
            <mxPoint x="350" y="350" as="sourcePoint" />
            <mxPoint x="770" y="350" as="targetPoint" />
          </mxGeometry>
        </mxCell>
        <mxCell id="QVS38LhnqsuLPrGe4ZjG-59" value="" style="endArrow=open;endFill=1;endSize=12;html=1;rounded=0;entryX=0.507;entryY=1.115;entryDx=0;entryDy=0;entryPerimeter=0;" edge="1" parent="1" target="QVS38LhnqsuLPrGe4ZjG-25">
          <mxGeometry width="160" relative="1" as="geometry">
            <mxPoint x="530" y="350" as="sourcePoint" />
            <mxPoint x="500" y="300" as="targetPoint" />
            <Array as="points" />
          </mxGeometry>
        </mxCell>
      </root>
    </mxGraphModel>
  </diagram>
</mxfile>
